<svg width="100" height="100" viewBox="0 0 100 100" fill="none" xmlns="http://www.w3.org/2000/svg">
<rect width="100" height="100" fill="#242526"/>
<path d="M61.96 59.12C61.9333 59.44 61.8933 59.7733 61.84 60.12C61.7867 60.4667 61.6933 60.7867 61.56 61.08C61.4267 61.4 61.2533 61.64 61.04 61.8C60.7467 62.0667 60.4 62.2133 60 62.24C59.6267 62.3733 59.2667 62.4133 58.92 62.36C58.5733 62.3067 58.2533 62.2133 57.96 62.08C57.5867 61.84 57.3067 61.56 57.12 61.24C56.96 60.8933 56.84 60.5333 56.76 60.16C56.68 59.7867 56.64 59.4 56.64 59C56.64 58.6 56.64 58.2267 56.64 57.88V54.76L56.6 48.64C56.6 48.2133 56.6 47.88 56.6 47.64C56.6 47.4 56.6 47.1867 56.6 47C56.6 46.7867 56.5867 46.56 56.56 46.32C56.56 46.0533 56.56 45.68 56.56 45.2C56.56 45.12 56.56 44.9867 56.56 44.8C56.5867 44.5867 56.5733 44.04 56.52 43.16C55.48 44.8933 54.6133 46.2933 53.92 47.36C53.2533 48.4 52.68 49.2133 52.2 49.8C51.7467 50.36 51.3467 50.7467 51 50.96C50.6533 51.1467 50.2933 51.2533 49.92 51.28C49.7067 51.3067 49.4933 51.2667 49.28 51.16C49.0667 51.0533 48.8533 50.92 48.64 50.76C48.4533 50.6 48.2667 50.44 48.08 50.28C47.92 50.0933 47.7867 49.92 47.68 49.76C47.04 48.96 46.32 48 45.52 46.88C44.72 45.76 43.8933 44.4 43.04 42.8C43.04 42.8267 43.0267 43.2667 43 44.12C43 44.9733 43 46.04 43 47.32C43 48.5733 42.9867 49.9333 42.96 51.4C42.96 52.84 42.9467 54.1867 42.92 55.44C42.92 56.6933 42.9067 57.7467 42.88 58.6C42.8533 59.4267 42.8267 59.84 42.8 59.84C42.8 60.2933 42.6933 60.72 42.48 61.12C42.2667 61.4933 41.9733 61.8 41.6 62.04C41.2533 62.28 40.84 62.4133 40.36 62.44C39.88 62.4667 39.36 62.3333 38.8 62.04C38.4533 61.8267 38.1867 61.52 38 61.12C37.84 60.72 37.7333 60.3467 37.68 60C37.6533 59.6267 37.6267 59.2667 37.6 58.92C37.6 58.5733 37.6 58.2133 37.6 57.84L37.64 54.72L37.68 48.56V43.2C37.68 40.88 37.76 38.6 37.92 36.36C37.92 36.0667 37.9467 35.8 38 35.56C38.08 35.2933 38.1733 35.04 38.28 34.8C38.4933 34.3733 38.7733 34.0533 39.12 33.84C39.52 33.6 39.9467 33.48 40.4 33.48C40.5867 33.48 40.76 33.4933 40.92 33.52C41.1067 33.52 41.28 33.5333 41.44 33.56C41.9733 33.6667 42.4267 33.9867 42.8 34.52C43.2 35.0267 43.5733 35.4667 43.92 35.84C44.1333 36.08 44.36 36.3733 44.6 36.72C44.84 37.0667 45.08 37.4267 45.32 37.8C45.56 38.1733 45.7867 38.5333 46 38.88C46.2133 39.2267 46.4 39.5333 46.56 39.8C47.2533 40.92 47.8667 41.9467 48.4 42.88C48.96 43.8133 49.48 44.6133 49.96 45.28C50.04 45.2 50.1333 45.0933 50.24 44.96C50.3467 44.8 50.4533 44.64 50.56 44.48C50.6933 44.2933 50.8 44.12 50.88 43.96C50.9867 43.8 51.0667 43.6667 51.12 43.56C51.3867 43.1333 51.6533 42.72 51.92 42.32C52.1867 41.8933 52.4667 41.4533 52.76 41C53.08 40.52 53.4 40 53.72 39.44C54.0667 38.88 54.4667 38.24 54.92 37.52C55.1067 37.2 55.3467 36.8133 55.64 36.36C55.9333 35.9067 56.2667 35.4667 56.64 35.04C57.0133 34.6133 57.4 34.2533 57.8 33.96C58.2267 33.64 58.6533 33.48 59.08 33.48C59.2933 33.48 59.48 33.4933 59.64 33.52C59.8 33.52 59.96 33.5333 60.12 33.56C60.44 33.5867 60.7467 33.7333 61.04 34C61.2533 34.2133 61.4133 34.44 61.52 34.68C61.6267 35.0267 61.6933 35.32 61.72 35.56C61.7467 35.7467 61.76 35.92 61.76 36.08C61.7867 36.24 61.8 36.4 61.8 36.56C61.8 38.0533 61.8133 39.5333 61.84 41C61.8667 42.4667 61.88 43.9467 61.88 45.44C61.88 47.2533 61.88 49.12 61.88 51.04C61.9067 52.96 61.92 54.8267 61.92 56.64C61.92 57.0133 61.9333 57.4133 61.96 57.84C61.9867 58.2667 61.9867 58.6933 61.96 59.12Z" fill="#BC98EA"/>
</svg>
