<svg width="100" height="100" viewBox="0 0 100 100" fill="none" xmlns="http://www.w3.org/2000/svg">
<rect width="100" height="100" fill="#242526"/>
<path d="M59.96 59.12C60.1733 59.52 60.1867 59.92 60 60.32C59.8667 60.7467 59.64 61.0667 59.32 61.28C59.16 61.4133 59.0133 61.5333 58.88 61.64C58.7467 61.72 58.6 61.7867 58.44 61.84C58.1467 62 57.8 62.0533 57.4 62C57.24 62 57.0933 61.9733 56.96 61.92C56.8267 61.8667 56.6933 61.8 56.56 61.72C56.4267 61.64 56.28 61.56 56.12 61.48C55.9867 61.3733 55.8533 61.2667 55.72 61.16C55.56 61.0267 55.4133 60.9067 55.28 60.8C55.1467 60.6933 55.0267 60.5733 54.92 60.44C54.7867 60.3067 54.6667 60.1733 54.56 60.04C54.4533 59.9067 54.3467 59.7867 54.24 59.68L53.76 59.16L46.08 51.12L46.2 59.16V59.52C46.2 59.6267 46.1867 59.7467 46.16 59.88C46.1333 59.9867 46.1067 60.1067 46.08 60.24C46 60.5867 45.9067 60.8933 45.8 61.16C45.7467 61.32 45.6667 61.4533 45.56 61.56C45.48 61.6667 45.3867 61.7733 45.28 61.88C44.9867 62.1467 44.64 62.2933 44.24 62.32C43.84 62.4533 43.4667 62.4933 43.12 62.44C42.8 62.4133 42.4667 62.32 42.12 62.16C41.8533 62 41.6133 61.7333 41.4 61.36C41.3467 61.2533 41.3067 61.1867 41.28 61.16C41.28 61.1333 41.2533 61.04 41.2 60.88C41.04 60.6133 40.96 60.3467 40.96 60.08C40.9333 59.92 40.9067 59.7733 40.88 59.64C40.88 59.5067 40.8667 59.36 40.84 59.2C40.8133 59.0933 40.8 58.9867 40.8 58.88C40.8 58.7733 40.8 58.6667 40.8 58.56C40.8267 58.4267 40.84 58.32 40.84 58.24C40.84 58.1333 40.84 58.0133 40.84 57.88L40.8 54.72L40.76 48.84C40.76 47.1333 40.72 45.2933 40.64 43.32C40.6133 42.36 40.6 41.5067 40.6 40.76C40.6 40.0133 40.6133 39.1733 40.64 38.24V38.08C40.6933 37.7867 40.72 37.5067 40.72 37.24C40.72 36.9467 40.7333 36.6667 40.76 36.4C40.76 35.8667 40.88 35.3333 41.12 34.8C41.28 34.4 41.56 34.08 41.96 33.84C42.1733 33.7067 42.3733 33.6267 42.56 33.6C42.7733 33.5467 43 33.4933 43.24 33.44C43.4267 33.44 43.6 33.4533 43.76 33.48C43.9467 33.5067 44.12 33.5333 44.28 33.56C44.6267 33.6133 44.9467 33.76 45.24 34C45.32 34.08 45.3867 34.1733 45.44 34.28C45.52 34.3867 45.5867 34.52 45.64 34.68C45.7733 34.8933 45.8667 35.2 45.92 35.6C45.9467 35.76 45.96 35.92 45.96 36.08C45.9867 36.24 46 36.4133 46 36.6V38.24L46.04 43.12C46.4667 42.7467 46.88 42.36 47.28 41.96C47.7067 41.56 48.12 41.1333 48.52 40.68C49.24 39.9333 49.9467 39.2133 50.64 38.52C51.36 37.8 52.08 37.0933 52.8 36.4L52.92 36.28C53.1333 36.0667 53.3467 35.8667 53.56 35.68C53.8 35.4667 54.0267 35.2667 54.24 35.08C54.64 34.6267 55.1333 34.3067 55.72 34.12C56.0933 33.88 56.5333 33.7867 57.04 33.84C57.28 33.8667 57.4933 33.92 57.68 34C57.8933 34.08 58.0933 34.1867 58.28 34.32C58.4133 34.4533 58.5467 34.5733 58.68 34.68C58.8133 34.76 58.92 34.8667 59 35C59.2133 35.1867 59.3467 35.4667 59.4 35.84C59.4 36.1333 59.3467 36.4 59.24 36.64C59.16 36.7733 59.08 36.9067 59 37.04C58.92 37.1733 58.8267 37.3067 58.72 37.44C58.5867 37.6 58.4667 37.7467 58.36 37.88C58.2533 38.0133 58.1333 38.1467 58 38.28C57.8933 38.4133 57.7733 38.5333 57.64 38.64C57.5333 38.7467 57.4267 38.8667 57.32 39L56.8 39.52L49.32 47.16C49.72 47.56 50.1333 47.9867 50.56 48.44C51.0133 48.8667 51.44 49.2933 51.84 49.72C52.24 50.12 52.6133 50.5067 52.96 50.88C53.3067 51.2267 53.6 51.52 53.84 51.76C54.56 52.5067 55.2533 53.2533 55.92 54C56.5867 54.72 57.24 55.4533 57.88 56.2L58 56.32C58.2133 56.5333 58.4133 56.76 58.6 57C58.7867 57.2133 58.96 57.4267 59.12 57.64C59.52 58.0933 59.8 58.5867 59.96 59.12Z" fill="#BC98EA"/>
</svg>
